<svg xmlns="http://www.w3.org/2000/svg" viewBox="0 0 512 449"><path d="M137 47h206v130H137z" fill="#FDDB87"/><circle cx="251.5" cy="29.5" r="26.5" fill="#EFBA5B"/><circle cx="294.5" cy="33.5" r="26.5" fill="#FDDB87"/><circle cx="351.5" cy="75.5" r="26.5" fill="#FDDB87"/><circle cx="355.5" cy="123.5" r="26.5" fill="#FDDB87"/><circle cx="167.5" cy="26.5" r="26.5" fill="#EFBA5B"/><circle cx="210.5" cy="33.5" r="26.5" fill="#FDDB87"/><circle cx="136.5" cy="63.5" r="26.5" fill="#EFBA5B"/><circle cx="122.5" cy="109.5" r="26.5" fill="#EFBA5B"/><circle cx="149.5" cy="109.5" r="26.5" fill="#FDDB87"/><circle cx="167.5" cy="56.5" r="26.5" fill="#EFBA5B"/><circle cx="305.5" cy="109.5" r="26.5" fill="#FDDB87"/><circle cx="258.5" cy="63.5" r="26.5" fill="#FDDB87"/><circle cx="220.5" cy="82.5" r="26.5" fill="#FDDB87"/><circle cx="326.5" cy="44.5" r="26.5" fill="#FDDB87"/><circle cx="287.5" cy="92.5" r="17.5" fill="#EFBA5B"/><circle cx="182.5" cy="81.5" r="17.5" fill="#EFBA5B"/><circle cx="305.5" cy="79.5" r="17.5" fill="#EFBA5B"/><circle cx="207.5" cy="60.5" r="17.5" fill="#EFBA5B"/><circle cx="288.5" cy="71.5" r="17.5" fill="#EFBA5B"/><circle cx="189.5" cy="68.5" r="17.5" fill="#EFBA5B"/><path d="M328 129c20 1 25 19 25 27h-51c2-21 18-27 26-27Zm-103 0c20 1 25 19 25 27h-51c2-21 18-27 26-27Z" fill="#DDDBC7"/><path d="M124 127c20 1 25 19 24 27H97c2-21 19-27 27-27z" fill="#CEC9A7"/><path d="M123 425 98 169l-1-15h153v295H147c-19 0-24-16-24-24zM378 425l25-256v-15H250v295h103c19 0 24-16 25-24Z" fill="#DDDBC7"/><path d="m246 370-23-241c-17 1-23 17-23 24-3-20-19-24-27-23-17 0-23 13-24 20-6-18-20-21-26-20-19 0-25 14-25 21v23l24 248c1 20 16 27 24 27h208c10 0 13-3 14-4l7-14-7-41h-96c-19 2-25-13-26-20Z" fill="#CEC9A7"/><path d="M276 130c-20 2-26 17-26 24v295h35l17-295c-4-20-19-25-26-24z" fill="#ED3124"/><path d="m149 154 18 295h42l-10-295c-3-20-18-25-25-25-18 1-25 18-25 25Z" fill="#E00E0E"/><path d="M379 130c-21 0-26 19-26 28l-18 291h19c19 0 26-14 27-20l23-269c1-25-17-31-25-30Z" fill="#ED3124"/><path d="M442 226v47l-1 44c-1 14-9 17-13 17H269c-4 1-6-3-6-5l-4-10c-2-7-7-11-9-12v-89c3 0 7-3 8-4 3-4 6-5 8-5h150c21-3 26 10 26 17Z" fill="#DDD"/><rect x="279" y="234.5" width="133" height="75" rx="11" fill="#E00E0E"/><path d="M326 249h-47v50c0 7 7 11 11 10h106c-3-52-48-60-70-60Z" fill="#ED3124"/><path d="M58 226v47l1 44c1 14 10 17 14 17h159c3 1 5-3 6-5l3-10c2-7 7-11 9-12v-89c-3 0-7-3-8-4-3-4-6-5-7-5H84c-21-3-26 10-26 17Z" fill="#CCCBC6"/><rect x="88" y="234.5" width="133" height="75" rx="11" fill="#00818E"/><path d="M135 249H88v50c0 7 7 11 11 10h106c-3-52-48-60-70-60Z" fill="#128CA0"/><circle cx="350" cy="411" r="23" fill="#EFBA5B"/><circle cx="366" cy="400" r="23" fill="#EFBA5B"/><circle cx="381" cy="424" r="23" fill="#FDDB87"/><circle cx="24" cy="418" r="24" fill="#EFBA5B"/><circle cx="54" cy="406" r="24" fill="#EFBA5B"/><circle cx="50" cy="424" r="24" fill="#FDDB87"/><circle cx="462" cy="407" r="24" fill="#EFBA5B"/><circle cx="459" cy="423" r="24" fill="#EFBA5B"/><circle cx="488" cy="412" r="24" fill="#FDDB87"/></svg>