<?xml version="1.0" standalone="no"?>
<!DOCTYPE svg PUBLIC "-//W3C//DTD SVG 20010904//EN"
 "http://www.w3.org/TR/2001/REC-SVG-20010904/DTD/svg10.dtd">
<svg version="1.0" xmlns="http://www.w3.org/2000/svg"
 width="898.000000pt" height="898.000000pt" viewBox="0 0 898.000000 898.000000"
 preserveAspectRatio="xMidYMid meet">
<metadata>
Created by potrace 1.14, written by Peter Selinger 2001-2017
</metadata>
<g transform="translate(0.000000,898.000000) scale(0.100000,-0.100000)"
fill="#000000" stroke="none">
<path d="M2727 8969 c-60 -14 -137 -49 -192 -88 -56 -40 -122 -107 -131 -133
-3 -10 -9 -18 -13 -18 -8 0 -30 -48 -57 -120 -22 -62 -28 -227 -9 -279 8 -23
12 -41 10 -41 -2 0 3 -16 11 -36 15 -35 14 -36 -3 -28 -10 4 -65 8 -123 8 -86
1 -117 -4 -170 -23 -116 -42 -234 -136 -277 -221 -10 -19 -22 -38 -28 -42 -5
-4 -10 -11 -11 -15 0 -4 -3 -15 -6 -23 -53 -146 -43 -325 25 -450 26 -47 67
-102 89 -118 10 -7 18 -18 18 -24 0 -6 -3 -9 -6 -5 -14 14 -210 -72 -234 -102
-3 -4 -18 -17 -35 -29 -68 -53 -138 -172 -162 -277 -16 -67 -7 -218 16 -285
35 -100 103 -194 189 -259 l32 -24 -48 -46 c-58 -58 -92 -101 -92 -118 0 -7
-3 -13 -7 -13 -5 0 -15 -17 -25 -38 -46 -104 -50 -127 -52 -337 -2 -99 1 -192
5 -207 4 -16 3 -30 -2 -34 -5 -3 -7 -10 -3 -16 3 -5 8 -33 9 -61 2 -29 6 -77
9 -107 4 -30 9 -77 12 -105 3 -27 7 -70 9 -95 2 -25 7 -70 10 -100 3 -30 7
-75 9 -100 3 -25 8 -74 12 -109 l6 -63 -268 4 c-188 4 -283 2 -318 -7 -112
-26 -193 -90 -242 -191 l-29 -59 -1 -730 c0 -401 1 -734 4 -738 2 -5 6 -110 8
-233 4 -244 14 -308 62 -399 27 -50 65 -89 109 -112 23 -12 86 -26 111 -24 24
1 58 1 87 -2 17 -1 39 1 51 4 11 4 27 4 34 -1 7 -4 26 -4 41 0 18 5 29 5 29
-1 0 -6 6 -7 17 -1 9 6 29 6 45 2 16 -5 30 -5 34 1 3 5 10 6 16 3 6 -4 107 -7
224 -7 117 0 217 -3 223 -6 9 -6 19 -72 26 -176 2 -22 6 -62 9 -90 3 -27 8
-75 11 -105 7 -90 15 -172 20 -215 9 -79 25 -244 39 -400 4 -38 9 -86 11 -105
2 -19 6 -62 10 -95 3 -33 8 -85 11 -114 4 -30 8 -73 9 -95 2 -23 4 -41 5 -41
0 0 3 -29 6 -65 2 -36 6 -83 9 -105 3 -22 7 -65 10 -95 12 -133 16 -162 25
-185 5 -14 8 -25 5 -25 -2 0 3 -17 11 -38 67 -168 161 -264 314 -320 41 -16
218 -17 2220 -17 1196 0 2189 3 2205 7 55 12 90 25 142 52 53 26 58 26 123 -1
30 -12 47 -15 134 -17 60 -2 101 1 123 10 18 8 33 11 33 7 0 -4 5 -2 12 5 7 7
20 12 30 12 10 0 18 4 18 9 0 5 14 14 30 21 49 20 134 113 169 184 38 78 54
159 47 240 -7 85 -10 97 -47 170 -41 83 -110 155 -188 197 l-61 33 -2 50 c-1
57 -1 58 -12 106 -10 41 -41 114 -65 150 -10 14 -16 34 -15 45 1 11 5 54 8 95
10 111 15 151 22 161 3 5 0 9 -6 9 -6 0 -8 5 -4 11 7 11 9 32 18 163 3 37 8
91 11 120 3 28 8 74 10 101 2 28 7 82 10 120 4 39 8 93 10 120 2 28 4 52 6 55
1 3 1 9 0 14 -1 4 1 16 4 26 5 16 17 18 108 16 56 -1 110 2 120 6 9 5 17 5 17
1 0 -7 107 -9 135 -3 6 1 12 2 15 1 16 -6 70 -8 70 -2 0 4 12 6 28 5 15 -1 27
-3 27 -4 0 -1 19 -3 43 -3 23 -1 42 1 42 5 0 4 13 3 29 -2 16 -4 32 -6 34 -4
7 8 112 8 124 1 5 -4 13 -3 17 0 4 4 15 8 26 10 59 9 142 91 173 170 31 80 37
127 41 341 2 95 6 175 9 178 3 3 2 16 -3 28 -4 12 -4 29 1 38 6 11 5 19 -1 23
-6 4 -7 13 -2 23 5 9 10 328 11 707 2 746 3 725 -52 815 -35 58 -118 130 -150
130 -7 0 -17 4 -22 9 -24 22 -119 29 -365 24 l-259 -6 4 29 c4 32 15 162 21
239 2 28 6 73 9 100 2 28 6 77 9 110 7 84 15 170 21 240 24 241 28 370 15 443
-13 77 -57 197 -77 213 -7 6 -13 15 -13 20 0 10 -93 109 -103 109 -4 0 -16 7
-26 17 -26 22 -121 62 -148 63 -13 0 -23 5 -23 11 0 5 -4 8 -9 5 -5 -4 -15 -4
-23 -1 -11 4 -14 28 -12 108 2 119 -22 211 -80 300 -57 89 -162 179 -233 201
-22 7 -32 26 -15 26 4 0 21 10 37 23 173 135 252 359 196 559 -22 80 -64 171
-75 161 -3 -3 -6 0 -6 9 0 21 -82 103 -142 141 -63 41 -125 65 -204 80 l-58
12 1 75 c2 76 -16 167 -45 230 -33 72 -137 200 -162 200 -4 0 -13 7 -20 15
-13 15 -72 45 -145 72 -50 18 -206 26 -260 12 -84 -21 -81 -21 -110 17 -98
129 -237 202 -398 210 -144 7 -267 -35 -375 -129 -36 -32 -58 -45 -60 -37 -12
34 -101 122 -170 167 -88 57 -161 77 -282 78 -91 0 -115 -4 -182 -28 -42 -16
-82 -35 -89 -43 -6 -8 -17 -14 -23 -14 -14 0 -136 -118 -136 -131 0 -11 -27
-12 -32 -1 -7 20 -128 92 -188 113 -120 41 -277 33 -395 -21 -52 -24 -52 -24
-111 -74 -40 -34 -41 -35 -57 -16 -9 11 -14 20 -11 20 7 0 -45 66 -83 105 -99
101 -227 152 -380 152 -37 0 -85 -4 -106 -8z m3836 -3022 c-9 -48 -19 -53 -26
-11 -7 43 -2 55 18 48 10 -4 12 -15 8 -37z"/>
</g>
</svg>
